<?xml version="1.0" standalone="no"?>
<!DOCTYPE svg PUBLIC "-//W3C//DTD SVG 20010904//EN"
 "http://www.w3.org/TR/2001/REC-SVG-20010904/DTD/svg10.dtd">
<svg version="1.0" xmlns="http://www.w3.org/2000/svg"
 width="133.000000pt" height="134.000000pt" viewBox="0 0 133.000000 134.000000"
 preserveAspectRatio="xMidYMid meet">

<!-- Background rectangle -->
<rect width="100%" height="100%" fill="#ffffff"/>

<g transform="translate(0.000000,134.000000) scale(0.100000,-0.100000)"
fill="#000000" stroke="none">
<path d="M813 1230 c-32 -13 -49 -46 -66 -130 -9 -41 -23 -108 -32 -147 l-17
-73 -41 53 c-22 28 -63 73 -90 100 l-49 47 -85 0 c-46 0 -93 -4 -103 -10 -37
-20 -40 -60 -40 -491 0 -413 0 -419 21 -438 25 -22 33 -31 64 -65 22 -24 31
-26 104 -26 111 0 129 16 142 125 6 44 12 81 14 83 2 2 13 -15 26 -39 12 -24
48 -69 79 -101 57 -57 59 -58 115 -58 65 0 121 20 129 47 3 10 19 167 36 348
17 182 37 403 46 493 14 152 14 165 -1 189 -10 14 -25 27 -34 30 -9 2 -21 14
-26 26 -6 12 -21 27 -35 34 -28 14 -124 16 -157 3z m141 -36 c10 -4 16 -18 16
-38 1 -74 -84 -962 -93 -973 -6 -8 -35 -13 -76 -13 l-67 0 -89 156 c-89 156
-105 179 -105 149 0 -46 -32 -301 -39 -308 -4 -4 -43 -7 -87 -5 l-79 3 -3 418
c-1 277 1 425 8 437 9 17 22 20 90 20 l78 0 103 -129 c57 -72 104 -129 106
-128 1 1 21 89 44 196 23 106 49 199 56 207 15 14 107 20 137 8z"/>
</g>
</svg>
